<svg xmlns="http://www.w3.org/2000/svg" viewBox="0 0 64 64" role="img" aria-label="Lara XV">
  <defs>
    <linearGradient id="bg" x1="0%" y1="0%" x2="100%" y2="100%">
      <stop offset="0%" stop-color="#0a4a2d"/>
      <stop offset="55%" stop-color="#043220"/>
      <stop offset="100%" stop-color="#022417"/>
    </linearGradient>
    <radialGradient id="glow" cx="50%" cy="35%" r="60%">
      <stop offset="0%" stop-color="#7b63a8" stop-opacity="0.28"/>
      <stop offset="70%" stop-color="#7b63a8" stop-opacity="0"/>
    </radialGradient>
  </defs>

  <rect width="64" height="64" rx="14" fill="url(#bg)"/>
  <rect width="64" height="64" rx="14" fill="url(#glow)"/>

  <rect x="3.25" y="3.25" width="57.5" height="57.5" rx="11.5"
        fill="none" stroke="#baa8da" stroke-opacity="0.55" stroke-width="0.8"/>

  <g transform="translate(32 15)" fill="#d7c8ef">
    <path d="M0 6 C -4 3, -7 5, -6 9 C -2 8, 0 7, 0 6 Z"/>
    <path d="M0 6 C 4 3, 7 5, 6 9 C 2 8, 0 7, 0 6 Z"/>
    <path d="M-0.55 6 L-0.55 11.5 L0.55 11.5 L0.55 6 Z"/>
  </g>

  <text x="32" y="46"
        font-family="'Cormorant Garamond','Times New Roman',Georgia,serif"
        font-size="24" font-style="italic" font-weight="500"
        letter-spacing="1.5"
        fill="#f4f1f8" text-anchor="middle">XV</text>

  <line x1="23" y1="53" x2="41" y2="53"
        stroke="#baa8da" stroke-opacity="0.7" stroke-width="0.7" stroke-linecap="round"/>
</svg>
